<mxfile host="app.diagrams.net" modified="2021-07-11T11:24:58.214Z" agent="5.0 (Windows NT 10.0; Win64; x64) AppleWebKit/537.36 (KHTML, like Gecko) Chrome/91.0.4472.124 Safari/537.36" etag="B0AfqOktYId2lp_MVV6r" version="14.8.5" type="github">
  <diagram id="m9YxTYbFuq8XrT7B8z0A" name="Page-1">
    <mxGraphModel dx="952" dy="456" grid="1" gridSize="10" guides="1" tooltips="1" connect="1" arrows="1" fold="1" page="1" pageScale="1" pageWidth="827" pageHeight="1169" math="0" shadow="0">
      <root>
        <mxCell id="0" />
        <mxCell id="1" parent="0" />
        <mxCell id="tWC7mckAVRyr-sFawbDM-1" value="Người dùng" style="swimlane;whiteSpace=wrap" vertex="1" parent="1">
          <mxGeometry x="164.5" y="128" width="280" height="752" as="geometry" />
        </mxCell>
        <mxCell id="tWC7mckAVRyr-sFawbDM-2" value="" style="ellipse;shape=startState;fillColor=#000000;strokeColor=#ff0000;" vertex="1" parent="tWC7mckAVRyr-sFawbDM-1">
          <mxGeometry x="100" y="40" width="30" height="30" as="geometry" />
        </mxCell>
        <mxCell id="tWC7mckAVRyr-sFawbDM-3" value="" style="edgeStyle=elbowEdgeStyle;elbow=horizontal;verticalAlign=bottom;endArrow=open;endSize=8;strokeColor=#FF0000;endFill=1;rounded=0" edge="1" parent="tWC7mckAVRyr-sFawbDM-1" source="tWC7mckAVRyr-sFawbDM-2" target="tWC7mckAVRyr-sFawbDM-4">
          <mxGeometry x="100" y="40" as="geometry">
            <mxPoint x="115" y="110" as="targetPoint" />
          </mxGeometry>
        </mxCell>
        <mxCell id="tWC7mckAVRyr-sFawbDM-4" value="Truy cập Fshop" style="" vertex="1" parent="tWC7mckAVRyr-sFawbDM-1">
          <mxGeometry x="60" y="110" width="110" height="50" as="geometry" />
        </mxCell>
        <mxCell id="tWC7mckAVRyr-sFawbDM-5" value="Chọn đăng nhập&#xa;tài khoản" style="" vertex="1" parent="tWC7mckAVRyr-sFawbDM-1">
          <mxGeometry x="60" y="202" width="110" height="50" as="geometry" />
        </mxCell>
        <mxCell id="tWC7mckAVRyr-sFawbDM-6" value="" style="endArrow=open;strokeColor=#FF0000;endFill=1;rounded=0" edge="1" parent="tWC7mckAVRyr-sFawbDM-1" source="tWC7mckAVRyr-sFawbDM-4" target="tWC7mckAVRyr-sFawbDM-5">
          <mxGeometry relative="1" as="geometry" />
        </mxCell>
        <mxCell id="tWC7mckAVRyr-sFawbDM-7" value="Nhập&#xa;username, password" style="" vertex="1" parent="tWC7mckAVRyr-sFawbDM-1">
          <mxGeometry x="50" y="312" width="130" height="50" as="geometry" />
        </mxCell>
        <mxCell id="tWC7mckAVRyr-sFawbDM-8" value="Giao diện" style="swimlane;whiteSpace=wrap" vertex="1" parent="1">
          <mxGeometry x="444.5" y="128" width="280" height="752" as="geometry" />
        </mxCell>
        <mxCell id="tWC7mckAVRyr-sFawbDM-9" value="Form đăng nhập" style="" vertex="1" parent="tWC7mckAVRyr-sFawbDM-8">
          <mxGeometry x="85.5" y="202" width="110" height="50" as="geometry" />
        </mxCell>
        <mxCell id="tWC7mckAVRyr-sFawbDM-10" value="Trang chủ Fshop" style="" vertex="1" parent="tWC7mckAVRyr-sFawbDM-8">
          <mxGeometry x="85" y="602" width="110" height="50" as="geometry" />
        </mxCell>
        <mxCell id="tWC7mckAVRyr-sFawbDM-11" value="Form đăng nhập" style="" vertex="1" parent="tWC7mckAVRyr-sFawbDM-8">
          <mxGeometry x="85" y="372" width="110" height="50" as="geometry" />
        </mxCell>
        <mxCell id="tWC7mckAVRyr-sFawbDM-20" value="" style="ellipse;shape=startState;fillColor=#000000;strokeColor=#ff0000;" vertex="1" parent="tWC7mckAVRyr-sFawbDM-8">
          <mxGeometry x="125.5" y="672" width="30" height="30" as="geometry" />
        </mxCell>
        <mxCell id="tWC7mckAVRyr-sFawbDM-21" value="" style="endArrow=open;strokeColor=#FF0000;endFill=1;rounded=0;exitX=0.5;exitY=1;exitDx=0;exitDy=0;entryX=0.5;entryY=0;entryDx=0;entryDy=0;" edge="1" parent="tWC7mckAVRyr-sFawbDM-8" source="tWC7mckAVRyr-sFawbDM-10" target="tWC7mckAVRyr-sFawbDM-20">
          <mxGeometry relative="1" as="geometry">
            <mxPoint x="135.5" y="572" as="sourcePoint" />
            <mxPoint x="135.5" y="614" as="targetPoint" />
          </mxGeometry>
        </mxCell>
        <mxCell id="tWC7mckAVRyr-sFawbDM-12" value="Hệ thống" style="swimlane;whiteSpace=wrap" vertex="1" parent="1">
          <mxGeometry x="724.5" y="130" width="280" height="752" as="geometry" />
        </mxCell>
        <mxCell id="tWC7mckAVRyr-sFawbDM-13" value="Kiểm tra tồn tại" style="rhombus;fillColor=#ffffc0;strokeColor=#ff0000;" vertex="1" parent="tWC7mckAVRyr-sFawbDM-12">
          <mxGeometry x="95" y="350" width="100" height="82" as="geometry" />
        </mxCell>
        <mxCell id="tWC7mckAVRyr-sFawbDM-26" value="Tạo session" style="" vertex="1" parent="tWC7mckAVRyr-sFawbDM-12">
          <mxGeometry x="90" y="502" width="110" height="50" as="geometry" />
        </mxCell>
        <mxCell id="tWC7mckAVRyr-sFawbDM-25" value="" style="endArrow=open;strokeColor=#FF0000;endFill=1;rounded=0;exitX=0.5;exitY=1;exitDx=0;exitDy=0;entryX=0.5;entryY=0;entryDx=0;entryDy=0;" edge="1" parent="tWC7mckAVRyr-sFawbDM-12" source="tWC7mckAVRyr-sFawbDM-13" target="tWC7mckAVRyr-sFawbDM-26">
          <mxGeometry relative="1" as="geometry">
            <mxPoint x="143" y="434" as="sourcePoint" />
            <mxPoint x="146.5" y="542" as="targetPoint" />
          </mxGeometry>
        </mxCell>
        <mxCell id="tWC7mckAVRyr-sFawbDM-14" value="" style="endArrow=open;strokeColor=#FF0000;endFill=1;rounded=0;entryX=0;entryY=0.5;entryDx=0;entryDy=0;exitX=1;exitY=0.5;exitDx=0;exitDy=0;" edge="1" parent="1" source="tWC7mckAVRyr-sFawbDM-5" target="tWC7mckAVRyr-sFawbDM-9">
          <mxGeometry relative="1" as="geometry">
            <mxPoint x="334.5" y="478" as="sourcePoint" />
            <mxPoint x="464.5" y="478" as="targetPoint" />
          </mxGeometry>
        </mxCell>
        <mxCell id="tWC7mckAVRyr-sFawbDM-15" value="" style="endArrow=open;strokeColor=#FF0000;endFill=1;rounded=0;exitX=0.5;exitY=1;exitDx=0;exitDy=0;entryX=0.5;entryY=0;entryDx=0;entryDy=0;" edge="1" parent="1" source="tWC7mckAVRyr-sFawbDM-9" target="tWC7mckAVRyr-sFawbDM-7">
          <mxGeometry relative="1" as="geometry">
            <mxPoint x="590" y="400" as="sourcePoint" />
            <mxPoint x="250" y="440" as="targetPoint" />
            <Array as="points">
              <mxPoint x="585" y="410" />
              <mxPoint x="280" y="410" />
            </Array>
          </mxGeometry>
        </mxCell>
        <mxCell id="tWC7mckAVRyr-sFawbDM-16" value="" style="endArrow=open;strokeColor=#FF0000;endFill=1;rounded=0;exitX=1;exitY=0.5;exitDx=0;exitDy=0;entryX=0.5;entryY=0;entryDx=0;entryDy=0;" edge="1" parent="1" source="tWC7mckAVRyr-sFawbDM-7" target="tWC7mckAVRyr-sFawbDM-13">
          <mxGeometry relative="1" as="geometry">
            <mxPoint x="344.5" y="365" as="sourcePoint" />
            <mxPoint x="890" y="500" as="targetPoint" />
            <Array as="points">
              <mxPoint x="870" y="465" />
            </Array>
          </mxGeometry>
        </mxCell>
        <mxCell id="tWC7mckAVRyr-sFawbDM-17" value="" style="endArrow=open;strokeColor=#FF0000;endFill=1;rounded=0;exitX=0;exitY=0.5;exitDx=0;exitDy=0;" edge="1" parent="1" source="tWC7mckAVRyr-sFawbDM-13">
          <mxGeometry relative="1" as="geometry">
            <mxPoint x="650" y="520" as="sourcePoint" />
            <mxPoint x="640" y="521" as="targetPoint" />
            <Array as="points" />
          </mxGeometry>
        </mxCell>
        <mxCell id="tWC7mckAVRyr-sFawbDM-18" value="Không tồn tại" style="text;html=1;align=center;verticalAlign=middle;resizable=0;points=[];autosize=1;strokeColor=none;fontStyle=2" vertex="1" parent="1">
          <mxGeometry x="732" y="500" width="90" height="20" as="geometry" />
        </mxCell>
        <mxCell id="tWC7mckAVRyr-sFawbDM-22" value="" style="endArrow=open;strokeColor=#FF0000;endFill=1;rounded=0;exitX=0;exitY=0.5;exitDx=0;exitDy=0;entryX=0.5;entryY=1;entryDx=0;entryDy=0;" edge="1" parent="1" source="tWC7mckAVRyr-sFawbDM-11" target="tWC7mckAVRyr-sFawbDM-7">
          <mxGeometry relative="1" as="geometry">
            <mxPoint x="360" y="510" as="sourcePoint" />
            <mxPoint x="180.5" y="510" as="targetPoint" />
            <Array as="points">
              <mxPoint x="280" y="525" />
            </Array>
          </mxGeometry>
        </mxCell>
        <mxCell id="tWC7mckAVRyr-sFawbDM-27" value="" style="endArrow=open;strokeColor=#FF0000;endFill=1;rounded=0;entryX=0.5;entryY=0;entryDx=0;entryDy=0;exitX=0.5;exitY=1;exitDx=0;exitDy=0;" edge="1" parent="1" source="tWC7mckAVRyr-sFawbDM-26" target="tWC7mckAVRyr-sFawbDM-10">
          <mxGeometry relative="1" as="geometry">
            <mxPoint x="880" y="730" as="sourcePoint" />
            <mxPoint x="584.5" y="630" as="targetPoint" />
            <Array as="points">
              <mxPoint x="870" y="710" />
              <mxPoint x="585" y="710" />
            </Array>
          </mxGeometry>
        </mxCell>
        <mxCell id="tWC7mckAVRyr-sFawbDM-28" value="Có tồn tại" style="text;html=1;align=center;verticalAlign=middle;resizable=0;points=[];autosize=1;strokeColor=none;fontStyle=2" vertex="1" parent="1">
          <mxGeometry x="801" y="580" width="70" height="20" as="geometry" />
        </mxCell>
      </root>
    </mxGraphModel>
  </diagram>
</mxfile>
